<?xml version="1.0" encoding="utf-8"?>
<!-- Generator: Adobe Illustrator 24.1.0, SVG Export Plug-In . SVG Version: 6.00 Build 0)  -->
<svg version="1.1" id="Layer_1" xmlns="http://www.w3.org/2000/svg" xmlns:xlink="http://www.w3.org/1999/xlink" x="0px" y="0px"
	 viewBox="0 0 36 36" style="enable-background:new 0 0 36 36;" xml:space="preserve">
<style type="text/css">
	.st0{fill:#283785;}
	.st1{fill:#E5342A;}
	.st2{fill:#FFFFFF;}
</style>
<g>
	<path class="st0" d="M0,5.1L0,5.1L0,5.1V18v12.8v0C0,33.7,2.3,36,5.1,36h25.7c1.4,0,2.7-0.6,3.6-1.5l-33-33C0.6,2.4,0,3.7,0,5.1z"
		/>
	<path class="st1" d="M36,30.9V18V5.2v0v0v0C36,2.3,33.7,0,30.9,0H5.1C3.7,0,2.4,0.6,1.5,1.5l33,33C35.4,33.6,36,32.3,36,30.9
		L36,30.9z"/>
	<g>
		<g>
			<path class="st2" d="M19.2,4.5h-2.5c-0.6,0-1.1,0.5-1.1,1.1v14.4H17l0-2.3l0,0l2.1,2.3h1.2V5.6C20.3,5,19.8,4.5,19.2,4.5z
				 M19,17.7L19,17.7l-2.1-2.4H19V17.7z"/>
			<path class="st2" d="M21.9,9.1c0,1.5,0.5,2.9,0.8,3.1c1.9,1.4,3.1,3.7,3.1,6.2c0,4.3-3.5,7.7-7.7,7.7c-4.3,0-7.7-3.5-7.7-7.7
				c0-2.5,1.2-4.8,3.1-6.2c0.2-0.2,0.8-1.5,0.8-3.1c0-1.5-0.8-2.2-0.8-2.2c-4.5,1.8-7.7,6.3-7.7,11.5c0,6.8,5.5,12.4,12.4,12.4
				c6.8,0,12.4-5.5,12.4-12.4c0-5.2-3.2-9.6-7.7-11.5C22.6,6.9,21.9,7.6,21.9,9.1z"/>
		</g>
	</g>
</g>
</svg>
