<?xml version="1.0" encoding="utf-8"?>
<!-- Generator: Adobe Illustrator 24.1.0, SVG Export Plug-In . SVG Version: 6.00 Build 0)  -->
<svg version="1.1" id="Layer_1" xmlns="http://www.w3.org/2000/svg" xmlns:xlink="http://www.w3.org/1999/xlink" x="0px" y="0px"
	 viewBox="0 0 40 40" style="enable-background:new 0 0 40 40;" xml:space="preserve">
<style type="text/css">
	.st0{fill:#283785;}
	.st1{fill:#E5342A;}
	.st2{fill:#FFFFFF;}
</style>
<g>
	<path class="st0" d="M0,5.7L0,5.7L0,5.7V20v14.3v0C0,37.4,2.6,40,5.7,40h28.6c1.6,0,3-0.6,4-1.7L1.7,1.7C0.6,2.7,0,4.1,0,5.7z"/>
	<path class="st1" d="M40,34.3V20V5.7v0v0v0C40,2.6,37.4,0,34.3,0H5.7c-1.6,0-3,0.6-4,1.7l36.7,36.7C39.4,37.3,40,35.9,40,34.3
		L40,34.3z"/>
	<g>
		<g>
			<path class="st2" d="M21.4,5h-2.7c-0.7,0-1.2,0.5-1.2,1.2v16h1.5l0-2.6l0,0l2.3,2.6h1.4v-16C22.6,5.5,22,5,21.4,5z M21.2,19.7
				L21.2,19.7L18.8,17h2.4V19.7z"/>
			<path class="st2" d="M24.3,10.1c0,1.7,0.6,3.2,0.9,3.4c2.1,1.6,3.4,4.1,3.4,6.9c0,4.7-3.9,8.6-8.6,8.6c-4.7,0-8.6-3.9-8.6-8.6
				c0-2.8,1.4-5.3,3.4-6.9c0.3-0.2,0.9-1.7,0.9-3.4c0-1.7-0.9-2.4-0.9-2.4c-5,2-8.6,7-8.6,12.8c0,7.6,6.2,13.8,13.8,13.8
				c7.6,0,13.8-6.2,13.8-13.8c0-5.8-3.6-10.7-8.6-12.8C25.2,7.7,24.3,8.4,24.3,10.1z"/>
		</g>
	</g>
</g>
</svg>
