<svg width="325" height="56" viewBox="0 0 325 56" fill="none" xmlns="http://www.w3.org/2000/svg">
<path d="M47.9496 0H7.97982C5.79067 0 3.74275 0.918033 2.33039 2.33039C0.918033 3.74275 0 5.79067 0 7.97982V27.9647V47.9496C0 52.3279 3.60151 55.9294 7.97982 55.9294H47.9496C50.1387 55.9294 52.1866 55.0113 53.599 53.599C55.0113 52.1866 55.9294 50.1387 55.9294 47.9496V27.9647V7.97982C55.9294 3.60151 52.3985 0 47.9496 0Z" fill="white"/>
<path d="M8.05054 52.8926L8.61548 51.6921C9.18042 52.1158 10.0278 52.3983 10.8753 52.3983C11.7933 52.3983 12.1464 52.1158 12.1464 51.6921C12.1464 50.421 8.19177 51.2684 8.19177 48.7968C8.19177 47.6669 9.10981 46.6782 11.0165 46.6782C11.8639 46.6782 12.7113 46.8901 13.3469 47.3138L12.8526 48.5143C12.217 48.1612 11.5814 47.9493 10.9459 47.9493C10.0278 47.9493 9.67475 48.3024 9.67475 48.7261C9.67475 49.9973 13.6294 49.0792 13.6294 51.6215C13.6294 52.7514 12.7113 53.74 10.734 53.74C9.74537 53.6694 8.6861 53.3869 8.05054 52.8926Z" fill="#234291"/>
<path d="M20.1967 49.1499C20.1967 50.6329 19.0668 51.6216 17.2308 51.6216H15.889V53.7401H14.3354V46.7489H17.3014C19.0668 46.6783 20.1967 47.5963 20.1967 49.1499ZM18.5725 49.1499C18.5725 48.3731 18.0782 47.9494 17.1602 47.9494H15.889V50.2798H17.1602C18.1488 50.2798 18.5725 49.8561 18.5725 49.1499Z" fill="#234291"/>
<path d="M20.8323 50.2091C20.8323 48.1612 22.3859 46.6782 24.5044 46.6782C26.6229 46.6782 28.1765 48.1612 28.1765 50.2091C28.1765 52.257 26.6229 53.74 24.5044 53.74C22.3859 53.6694 20.8323 52.1864 20.8323 50.2091ZM26.6229 50.2091C26.6229 48.938 25.7049 48.02 24.5044 48.02C23.3039 48.02 22.3859 48.8674 22.3859 50.2091C22.3859 51.4802 23.3039 52.3983 24.5044 52.3983C25.7049 52.3277 26.6229 51.4802 26.6229 50.2091Z" fill="#234291"/>
<path d="M33.3317 53.6694L31.8488 51.5509H31.7781H30.4364V53.6694H28.8828V46.6782H31.7781C33.6142 46.6782 34.7441 47.5963 34.7441 49.1498C34.7441 50.1385 34.2498 50.9153 33.3317 51.2684L35.0266 53.6694H33.3317ZM31.7075 47.9493H30.4364V50.2797H31.7075C32.6962 50.2797 33.1199 49.856 33.1199 49.0792C33.1905 48.3731 32.6962 47.9493 31.7075 47.9493Z" fill="#234291"/>
<path d="M37.8513 47.9493H35.6621V46.6782H41.594V47.9493H39.4049V53.6694H37.8513V47.9493Z" fill="#234291"/>
<path d="M42.1589 52.8926L42.7239 51.6921C43.2888 52.1158 44.1362 52.3983 44.9836 52.3983C45.9017 52.3983 46.3254 52.1158 46.3254 51.6921C46.3254 50.421 42.3708 51.2684 42.3708 48.7968C42.3708 47.6669 43.2888 46.6782 45.1955 46.6782C46.0429 46.6782 46.8903 46.8901 47.5259 47.3138L47.0316 48.5143C46.396 48.1612 45.7604 47.9493 45.1249 47.9493C44.2069 47.9493 43.8538 48.3024 43.8538 48.7261C43.8538 49.9973 47.8084 49.0792 47.8084 51.6215C47.8084 52.7514 46.8903 53.74 44.913 53.74C43.8538 53.6694 42.7945 53.3869 42.1589 52.8926Z" fill="#234291"/>
<path d="M29.801 4.66064H26.1289C25.2108 4.66064 24.5046 5.43744 24.5046 6.28486V27.9646H26.5526V24.4337L29.6597 27.9646H31.4958V6.35547C31.4958 5.43744 30.719 4.66064 29.801 4.66064ZM29.5185 24.7161L26.2701 21.044H29.5185V24.7161Z" fill="#234291"/>
<path d="M33.8262 11.6518C33.8262 13.9822 34.603 16.0301 34.9561 16.3126C37.7808 18.4311 39.6169 21.8208 39.6169 25.6341C39.6169 32.0604 34.3911 37.2861 27.9649 37.2861C21.5387 37.2861 16.313 32.0604 16.313 25.6341C16.313 21.8208 18.149 18.4311 20.9737 16.3126C21.3268 16.0301 22.1742 13.9822 22.1742 11.6518C22.1742 9.32141 20.9737 8.33276 20.9737 8.33276C14.1238 11.1575 9.32178 17.8662 9.32178 25.7048C9.32178 36.015 17.6547 44.3479 27.9649 44.3479C38.2751 44.3479 46.6786 36.015 46.6786 25.6341C46.6786 17.7956 41.8766 11.0869 35.0267 8.33276C35.0267 8.33276 33.8262 9.32141 33.8262 11.6518Z" fill="#234291"/>
<path d="M82.976 40.336C81.016 40.336 79.3173 39.9813 77.88 39.272C76.4426 38.5626 75.3413 37.564 74.576 36.276C73.8106 34.988 73.428 33.504 73.428 31.824C73.428 29.6026 73.932 27.6053 74.94 25.832C75.9666 24.04 77.3946 22.6306 79.224 21.604C81.072 20.5773 83.1813 20.064 85.552 20.064C87.512 20.064 89.2106 20.4186 90.648 21.128C92.0853 21.8373 93.1866 22.836 93.952 24.124C94.7173 25.412 95.1 26.896 95.1 28.576C95.1 30.7973 94.5866 32.804 93.56 34.596C92.552 36.3693 91.124 37.7693 89.276 38.796C87.4466 39.8226 85.3466 40.336 82.976 40.336ZM83.368 36.472C84.8053 36.472 86.0653 36.1266 87.148 35.436C88.2306 34.7453 89.0613 33.8213 89.64 32.664C90.2186 31.5066 90.508 30.228 90.508 28.828C90.508 27.3346 90.0413 26.1493 89.108 25.272C88.1746 24.376 86.8586 23.928 85.16 23.928C83.7226 23.928 82.4626 24.2733 81.38 24.964C80.2973 25.6546 79.4666 26.5786 78.888 27.736C78.3093 28.8933 78.02 30.172 78.02 31.572C78.02 33.0653 78.4866 34.26 79.42 35.156C80.3533 36.0333 81.6693 36.472 83.368 36.472Z" fill="white"/>
<path d="M107.917 24.712C109.597 24.712 110.932 25.16 111.921 26.056C112.91 26.9333 113.405 28.1933 113.405 29.836C113.405 30.452 113.34 31.0586 113.209 31.656L111.529 40H107.161L108.785 31.936C108.86 31.6186 108.897 31.2733 108.897 30.9C108.897 30.116 108.682 29.5186 108.253 29.108C107.824 28.6973 107.18 28.492 106.321 28.492C105.201 28.492 104.268 28.8186 103.521 29.472C102.793 30.1066 102.298 31.068 102.037 32.356L100.525 40H96.157L99.153 24.936H103.297L102.961 26.56C104.305 25.328 105.957 24.712 107.917 24.712Z" fill="white"/>
<path d="M130.558 40.336C129.009 40.336 127.525 40.1306 126.106 39.72C124.687 39.3093 123.549 38.7866 122.69 38.152L124.538 34.652C125.434 35.3053 126.442 35.8093 127.562 36.164C128.682 36.5186 129.83 36.696 131.006 36.696C132.257 36.696 133.246 36.4906 133.974 36.08C134.702 35.6693 135.066 35.1093 135.066 34.4C135.066 33.8213 134.777 33.3826 134.198 33.084C133.619 32.7666 132.695 32.4306 131.426 32.076C130.157 31.7026 129.121 31.348 128.318 31.012C127.515 30.6573 126.815 30.1346 126.218 29.444C125.639 28.7533 125.35 27.8386 125.35 26.7C125.35 25.3746 125.714 24.208 126.442 23.2C127.189 22.192 128.234 21.4173 129.578 20.876C130.941 20.3346 132.518 20.064 134.31 20.064C135.635 20.064 136.886 20.2133 138.062 20.512C139.238 20.792 140.246 21.2026 141.086 21.744L139.378 25.216C138.65 24.712 137.829 24.3386 136.914 24.096C135.999 23.8346 135.047 23.704 134.058 23.704C132.77 23.704 131.753 23.928 131.006 24.376C130.259 24.824 129.886 25.4026 129.886 26.112C129.886 26.5413 130.045 26.9053 130.362 27.204C130.679 27.484 131.081 27.7173 131.566 27.904C132.051 28.072 132.733 28.2773 133.61 28.52C134.861 28.856 135.887 29.2013 136.69 29.556C137.493 29.892 138.174 30.396 138.734 31.068C139.313 31.7213 139.602 32.5893 139.602 33.672C139.602 35.016 139.229 36.192 138.482 37.2C137.735 38.1893 136.681 38.964 135.318 39.524C133.955 40.0653 132.369 40.336 130.558 40.336Z" fill="white"/>
<path d="M152.754 24.712C153.93 24.712 155.012 24.9826 156.002 25.524C157.01 26.0653 157.803 26.8493 158.382 27.876C158.979 28.884 159.278 30.0786 159.278 31.46C159.278 33.1213 158.904 34.624 158.158 35.968C157.43 37.2933 156.431 38.3386 155.162 39.104C153.892 39.8506 152.483 40.224 150.934 40.224C148.638 40.224 147.014 39.4773 146.062 37.984L144.578 45.432H140.21L144.298 24.936H148.442L148.134 26.42C149.384 25.2813 150.924 24.712 152.754 24.712ZM150.43 36.612C151.288 36.612 152.054 36.4066 152.726 35.996C153.398 35.5666 153.92 34.9786 154.294 34.232C154.667 33.4853 154.854 32.6266 154.854 31.656C154.854 30.6293 154.546 29.8173 153.93 29.22C153.332 28.6226 152.492 28.324 151.41 28.324C150.57 28.324 149.814 28.5386 149.142 28.968C148.47 29.3786 147.947 29.9573 147.574 30.704C147.2 31.4506 147.014 32.3093 147.014 33.28C147.014 34.3066 147.312 35.1186 147.91 35.716C148.507 36.3133 149.347 36.612 150.43 36.612Z" fill="white"/>
<path d="M168.502 40.224C166.99 40.224 165.655 39.944 164.498 39.384C163.359 38.824 162.472 38.04 161.838 37.032C161.222 36.0053 160.914 34.82 160.914 33.476C160.914 31.8146 161.306 30.3213 162.09 28.996C162.874 27.6706 163.956 26.6253 165.338 25.86C166.719 25.0946 168.278 24.712 170.014 24.712C171.544 24.712 172.879 24.992 174.018 25.552C175.156 26.112 176.034 26.9053 176.65 27.932C177.284 28.94 177.602 30.116 177.602 31.46C177.602 33.1213 177.21 34.6146 176.426 35.94C175.66 37.2653 174.578 38.3106 173.178 39.076C171.796 39.8413 170.238 40.224 168.502 40.224ZM168.782 36.612C169.622 36.612 170.378 36.4066 171.05 35.996C171.722 35.5666 172.244 34.9786 172.618 34.232C172.991 33.4853 173.178 32.6266 173.178 31.656C173.178 30.6293 172.879 29.8173 172.282 29.22C171.684 28.6226 170.844 28.324 169.762 28.324C168.903 28.324 168.138 28.5386 167.466 28.968C166.794 29.3786 166.271 29.9573 165.898 30.704C165.524 31.4506 165.338 32.3093 165.338 33.28C165.338 34.3066 165.636 35.1186 166.234 35.716C166.85 36.3133 167.699 36.612 168.782 36.612Z" fill="white"/>
<path d="M185.73 26.728C186.383 26.0186 187.167 25.5053 188.082 25.188C189.015 24.8706 190.107 24.712 191.358 24.712L190.574 28.744C190.051 28.7066 189.715 28.688 189.566 28.688C188.241 28.688 187.177 29.0146 186.374 29.668C185.59 30.3213 185.058 31.3386 184.778 32.72L183.322 40H178.954L181.95 24.936H186.094L185.73 26.728Z" fill="white"/>
<path d="M197.359 34.68C197.321 34.8293 197.303 35.0346 197.303 35.296C197.303 36.2666 197.835 36.752 198.899 36.752C199.477 36.752 200.065 36.5746 200.663 36.22L201.307 39.328C200.336 39.9253 199.085 40.224 197.555 40.224C196.136 40.224 194.997 39.8506 194.139 39.104C193.28 38.3573 192.851 37.3306 192.851 36.024C192.851 35.6506 192.897 35.212 192.991 34.708L194.195 28.632H191.871L192.543 25.272H194.867L195.595 21.604H199.963L199.235 25.272H202.987L202.315 28.632H198.563L197.359 34.68Z" fill="white"/>
<path d="M209.079 40.224C207.772 40.224 206.531 40.084 205.355 39.804C204.197 39.5053 203.292 39.1226 202.639 38.656L204.319 35.492C204.972 35.9213 205.765 36.2666 206.699 36.528C207.651 36.7893 208.603 36.92 209.555 36.92C210.544 36.92 211.281 36.7986 211.767 36.556C212.252 36.2946 212.495 35.9306 212.495 35.464C212.495 35.0906 212.28 34.82 211.851 34.652C211.421 34.484 210.731 34.3066 209.779 34.12C208.696 33.9146 207.8 33.6906 207.091 33.448C206.4 33.2053 205.793 32.8133 205.271 32.272C204.767 31.712 204.515 30.956 204.515 30.004C204.515 28.3426 205.205 27.0453 206.587 26.112C207.987 25.1786 209.816 24.712 212.075 24.712C213.12 24.712 214.137 24.824 215.127 25.048C216.116 25.272 216.956 25.58 217.647 25.972L216.079 29.164C214.847 28.3986 213.363 28.016 211.627 28.016C210.675 28.016 209.947 28.156 209.443 28.436C208.957 28.716 208.715 29.0706 208.715 29.5C208.715 29.892 208.929 30.1813 209.359 30.368C209.788 30.536 210.507 30.7226 211.515 30.928C212.579 31.1333 213.447 31.3573 214.119 31.6C214.809 31.824 215.407 32.2066 215.911 32.748C216.415 33.2893 216.667 34.0266 216.667 34.96C216.667 36.64 215.957 37.9373 214.539 38.852C213.139 39.7666 211.319 40.224 209.079 40.224Z" fill="white"/>
<path d="M248.571 20.4L244.651 40H240.927L233.619 27.736L231.155 40H226.675L230.595 20.4H234.347L241.655 32.692L244.091 20.4H248.571Z" fill="white"/>
<path d="M265.361 31.348C265.361 32.0386 265.277 32.804 265.109 33.644H253.573C253.722 35.6973 255.019 36.724 257.465 36.724C258.23 36.724 258.958 36.6026 259.649 36.36C260.358 36.1173 260.974 35.772 261.497 35.324L263.317 38.208C262.477 38.88 261.515 39.384 260.433 39.72C259.35 40.056 258.211 40.224 257.017 40.224C255.467 40.224 254.105 39.9533 252.929 39.412C251.771 38.852 250.875 38.0586 250.241 37.032C249.625 36.0053 249.317 34.82 249.317 33.476C249.317 31.8146 249.69 30.3213 250.437 28.996C251.202 27.652 252.257 26.6066 253.601 25.86C254.945 25.0946 256.475 24.712 258.193 24.712C259.649 24.712 260.909 24.9826 261.973 25.524C263.055 26.0653 263.886 26.84 264.465 27.848C265.062 28.856 265.361 30.0226 265.361 31.348ZM257.997 27.988C256.97 27.988 256.102 28.268 255.393 28.828C254.683 29.3693 254.179 30.1253 253.881 31.096H261.357C261.357 30.1253 261.049 29.3693 260.433 28.828C259.835 28.268 259.023 27.988 257.997 27.988Z" fill="white"/>
<path d="M293.701 24.936L285.385 40H281.073L279.337 30.62L274.157 40H269.901L267.241 24.936H271.217L272.869 35.072L278.525 24.936H282.277L283.985 35.072L289.585 24.936H293.701Z" fill="white"/>
<path d="M297.946 40.224C296.639 40.224 295.398 40.084 294.222 39.804C293.064 39.5053 292.159 39.1226 291.506 38.656L293.186 35.492C293.839 35.9213 294.632 36.2666 295.566 36.528C296.518 36.7893 297.47 36.92 298.422 36.92C299.411 36.92 300.148 36.7986 300.634 36.556C301.119 36.2946 301.362 35.9306 301.362 35.464C301.362 35.0906 301.147 34.82 300.718 34.652C300.288 34.484 299.598 34.3066 298.646 34.12C297.563 33.9146 296.667 33.6906 295.958 33.448C295.267 33.2053 294.66 32.8133 294.138 32.272C293.634 31.712 293.382 30.956 293.382 30.004C293.382 28.3426 294.072 27.0453 295.454 26.112C296.854 25.1786 298.683 24.712 300.942 24.712C301.987 24.712 303.004 24.824 303.994 25.048C304.983 25.272 305.823 25.58 306.514 25.972L304.946 29.164C303.714 28.3986 302.23 28.016 300.494 28.016C299.542 28.016 298.814 28.156 298.31 28.436C297.824 28.716 297.582 29.0706 297.582 29.5C297.582 29.892 297.796 30.1813 298.226 30.368C298.655 30.536 299.374 30.7226 300.382 30.928C301.446 31.1333 302.314 31.3573 302.986 31.6C303.676 31.824 304.274 32.2066 304.778 32.748C305.282 33.2893 305.534 34.0266 305.534 34.96C305.534 36.64 304.824 37.9373 303.406 38.852C302.006 39.7666 300.186 40.224 297.946 40.224Z" fill="white"/>
</svg>
