<svg width="24" height="24" viewBox="0 0 24 24" fill="none" xmlns="http://www.w3.org/2000/svg">
<path d="M4.96552 3.31041H16.1379V1.70903C16.1378 1.39173 16.3191 1.1023 16.6046 0.963941C16.8902 0.82558 17.2297 0.86265 17.4786 1.05937L23.1765 5.5573C23.3763 5.7137 23.493 5.95328 23.493 6.20696C23.493 6.46064 23.3763 6.70022 23.1765 6.85661L17.4786 11.3545C17.2297 11.5513 16.8902 11.5883 16.6046 11.45C16.3191 11.3116 16.1378 11.0222 16.1379 10.7049V9.10351H0.827586C0.371089 9.10215 0.00136337 8.73242 0 8.27592V4.13799C0.00136337 3.68149 0.371089 3.31177 0.827586 3.31041H4.96552Z" fill="#36B37E"/>
<path d="M21.1035 14.8967H23.1724C23.6289 14.8981 23.9986 15.2678 24 15.7243V19.8622C23.9986 20.3187 23.6289 20.6885 23.1724 20.6898H7.86207V22.2912C7.8622 22.6085 7.68091 22.8979 7.39537 23.0363C7.10984 23.1746 6.77033 23.1376 6.52138 22.9408L0.823454 18.4429C0.623714 18.2865 0.507019 18.0469 0.507019 17.7933C0.507019 17.5396 0.623714 17.3 0.823454 17.1436L6.52138 12.6457C6.77033 12.449 7.10984 12.4119 7.39537 12.5502C7.68091 12.6886 7.8622 12.978 7.86207 13.2953V14.8967H21.1035Z" fill="#EF4035"/>
</svg>
