<svg width="24" height="24" viewBox="0 0 24 24" fill="none" xmlns="http://www.w3.org/2000/svg">
<g clip-path="url(#clip0)">
<path d="M7.48477 0.878142C5.9961 1.4817 4.66032 2.36913 3.51489 3.51423C2.36913 4.65966 1.48269 5.99577 0.878805 7.4841C0.295809 8.92203 0 10.4415 0 12.0002C0 13.5585 0.295809 15.078 0.878805 16.5152C1.48269 18.0039 2.36946 19.34 3.51489 20.4851C4.66032 21.6309 5.99577 22.5176 7.48477 23.1212C8.92269 23.7049 10.4419 23.9997 12.0005 23.9997C13.5591 23.9997 15.078 23.7039 16.5159 23.1212C18.0042 22.5176 19.3407 21.6309 20.4858 20.4851C21.6315 19.34 22.5183 18.0046 23.1219 16.5152C23.7049 15.078 24 13.5585 24 12.0002C24 10.4415 23.7045 8.92203 23.1219 7.4841C22.5183 5.99577 21.6309 4.65933 20.4858 3.51423C19.3407 2.36913 18.0056 1.4817 16.5159 0.878142C15.078 0.295478 13.5591 0 12.0005 0C10.4419 0 8.92269 0.295478 7.48477 0.878142ZM2.99921 17.0518C2.42119 16.689 1.8886 16.2712 1.41703 15.779C0.696743 13.7521 0.574705 11.5578 1.05191 9.47484C1.27642 9.03213 1.53177 8.60698 1.82062 8.19975C1.90983 8.07406 1.9924 7.94307 2.08791 7.82103L4.79595 9.42344C4.79595 9.44467 4.79595 9.46788 4.79595 9.49143C4.78899 10.9479 4.93689 12.3938 5.23138 13.8188C5.23237 13.8254 5.23337 13.8291 5.23469 13.835L3.13452 17.1281C3.08875 17.1049 3.04332 17.0797 2.99921 17.0518ZM11.0511 22.6188C11.5183 22.8572 11.9988 23.0585 12.4926 23.2223C10.3951 23.3135 8.27669 22.8221 6.404 21.7476L10.9436 22.5564C10.9784 22.5787 11.0139 22.5999 11.0511 22.6188ZM11.0345 21.7993L5.67741 20.8446C5.05064 20.0835 4.48688 19.2783 4.00238 18.4178C3.87901 18.1989 3.74139 17.9863 3.63693 17.7578L5.73512 14.4681C5.78154 14.4797 5.83328 14.492 5.89197 14.5076C7.20454 14.8588 8.54033 15.1085 9.8854 15.3041C9.96399 15.3151 10.0297 15.3247 10.0857 15.3307L12.6007 19.6793C12.1643 20.2928 11.7229 20.903 11.2719 21.5065C11.197 21.607 11.1174 21.7035 11.0345 21.7993ZM19.9472 19.9469C19.5207 20.3737 19.0681 20.7584 18.5942 21.1013C18.5156 20.4732 18.38 19.8577 18.1886 19.2564L20.8721 14.2502C21.6113 13.9136 22.3243 13.5319 22.9862 13.0587C23.0728 12.9974 23.1447 12.9287 23.2005 12.8538C23.0061 15.4408 21.9217 17.9727 19.9472 19.9469ZM19.8282 13.4543C19.928 13.6447 20.0265 13.837 20.1253 14.032L17.5333 18.8671C17.5184 18.8704 17.5041 18.8737 17.4892 18.8757C16.0881 19.1374 14.6757 19.2767 13.2514 19.2833L10.6647 14.8107C11.0673 14.0632 11.4663 13.3127 11.8619 12.5619C12.1305 12.0526 12.3945 11.5399 12.6581 11.0275L18.0115 10.4777C18.6671 11.4394 19.2883 12.4217 19.8282 13.4543ZM18.7421 7.71923C18.4881 8.3901 18.2161 9.05401 17.9459 9.71925L12.7307 10.2548C12.6684 10.1726 12.6037 10.0917 12.5357 10.0144C11.9199 9.31699 11.3001 8.6239 10.6813 7.92881C10.6869 7.92185 10.6926 7.91654 10.6982 7.91024C10.4485 7.66086 10.1981 7.41148 9.9484 7.16143L11.4003 2.79029C11.5004 2.76376 11.6012 2.74154 11.703 2.7306C12.4923 2.65034 13.2826 2.55948 14.0738 2.51371C14.5583 2.48652 15.0455 2.47093 15.5383 2.50576L19.1304 6.55456C19.0067 6.94521 18.886 7.33686 18.7421 7.71923ZM19.9472 4.05278C20.9381 5.04434 21.7055 6.17584 22.248 7.38462C21.5768 6.92266 20.8592 6.54262 20.1047 6.23288C19.9873 6.18447 19.867 6.14169 19.7446 6.09957L16.2088 2.11444C16.2334 1.94233 16.2463 1.76988 16.2516 1.59611C17.5967 2.14362 18.8575 2.9634 19.9472 4.05278ZM8.40138 1.38685C8.4153 1.39713 8.42194 1.40576 8.4299 1.40808C9.23806 1.68731 9.97328 2.09852 10.6664 2.58634L9.31003 6.67096C9.30306 6.67295 9.29643 6.67494 9.2898 6.67792C9.01223 6.79267 8.72935 6.89547 8.45609 7.01983C7.33023 7.53153 6.23255 8.09827 5.19855 8.77777L2.522 7.19426C2.52598 7.11069 2.54024 7.0258 2.56876 6.95019C2.7485 6.47132 2.92526 5.9898 3.12855 5.52055C3.28507 5.15908 3.46349 4.80988 3.65815 4.46864C3.78549 4.32803 3.91748 4.18875 4.05345 4.05278C5.32456 2.782 6.82682 1.87965 8.42625 1.34606C8.41796 1.359 8.40934 1.37259 8.40138 1.38685Z" fill="#091E42"/>
</g>
<defs>
<clipPath id="clip0">
<rect width="24" height="24" fill="white"/>
</clipPath>
</defs>
</svg>
