<svg width="24" height="24" viewBox="0 0 24 24" fill="none" xmlns="http://www.w3.org/2000/svg">
<path fill-rule="evenodd" clip-rule="evenodd" d="M0.6 21.2C0.268629 21.2 0 20.9314 0 20.6V3.2V3C0 2.44771 0.447715 2 1 2H1.2H22.8H23C23.5523 2 24 2.44771 24 3V3.2V20.6C24 20.9314 23.7314 21.2 23.4 21.2C23.0686 21.2 22.8 20.9314 22.8 20.6V4.2C22.8 3.64772 22.3523 3.2 21.8 3.2H2.2C1.64772 3.2 1.2 3.64772 1.2 4.2V20.6C1.2 20.9314 0.931371 21.2 0.6 21.2Z" fill="#091E42"/>
<path d="M9.74238 9.43906C8.99805 9.74084 8.33016 10.1845 7.75744 10.7571C7.18456 11.3298 6.74135 11.9978 6.4394 12.742C6.1479 13.461 6 14.2207 6 15C6 15.7791 6.1479 16.5389 6.4394 17.2575C6.74135 18.0018 7.18473 18.6699 7.75744 19.2424C8.33016 19.8153 8.99789 20.2587 9.74238 20.5604C10.4613 20.8523 11.2209 20.9997 12.0002 20.9997C12.7796 20.9997 13.539 20.8518 14.2579 20.5604C15.0021 20.2587 15.6703 19.8153 16.2429 19.2424C16.8158 18.6699 17.2592 18.0022 17.5609 17.2575C17.8524 16.5389 18 15.7791 18 15C18 14.2207 17.8523 13.461 17.5609 12.742C17.2592 11.9978 16.8154 11.3296 16.2429 10.7571C15.6703 10.1845 15.0028 9.74084 14.2579 9.43906C13.539 9.14774 12.7796 9 12.0002 9C11.2209 9 10.4613 9.14774 9.74238 9.43906ZM7.49961 17.5258C7.2106 17.3444 6.9443 17.1355 6.70852 16.8894C6.34837 15.876 6.28735 14.7788 6.52596 13.7374C6.63821 13.516 6.76589 13.3034 6.91031 13.0998C6.95491 13.037 6.9962 12.9715 7.04395 12.9105L8.39798 13.7117C8.39798 13.7223 8.39798 13.7339 8.39798 13.7456C8.3945 14.4739 8.46845 15.1968 8.61569 15.9093C8.61619 15.9126 8.61668 15.9144 8.61735 15.9174L7.56726 17.5639C7.54438 17.5523 7.52166 17.5397 7.49961 17.5258ZM11.5255 20.3092C11.7592 20.4285 11.9994 20.5291 12.2463 20.611C11.1976 20.6566 10.1383 20.4109 9.202 19.8737L11.4718 20.2781C11.4892 20.2892 11.507 20.2998 11.5255 20.3092ZM11.5172 19.8995L8.83871 19.4222C8.52532 19.0416 8.24344 18.639 8.00119 18.2088C7.93951 18.0993 7.87069 17.993 7.81846 17.8788L8.86756 16.234C8.89077 16.2398 8.91664 16.2459 8.94599 16.2537C9.60227 16.4293 10.2702 16.5541 10.9427 16.652C10.982 16.6574 11.0148 16.6622 11.0428 16.6652L12.3004 18.8395C12.0822 19.1462 11.8615 19.4513 11.636 19.7531C11.5985 19.8033 11.5587 19.8516 11.5172 19.8995ZM15.9736 18.9733C15.7604 19.1867 15.534 19.379 15.2971 19.5505C15.2578 19.2364 15.19 18.9287 15.0943 18.6281L16.4361 16.125C16.8057 15.9567 17.1622 15.7659 17.4931 15.5293C17.5364 15.4986 17.5724 15.4643 17.6002 15.4268C17.5031 16.7203 16.9609 17.9862 15.9736 18.9733ZM15.9141 15.7271C15.964 15.8223 16.0132 15.9184 16.0626 16.0159L14.7667 18.4334C14.7592 18.4351 14.7521 18.4367 14.7446 18.4377C14.0441 18.5686 13.3379 18.6382 12.6257 18.6415L11.3324 16.4052C11.5337 16.0315 11.7331 15.6563 11.9309 15.2809C12.0652 15.0262 12.1972 14.7699 12.3291 14.5137L15.0058 14.2388C15.3336 14.7196 15.6441 15.2107 15.9141 15.7271ZM15.371 12.8596C15.244 13.195 15.1081 13.5269 14.9729 13.8596L12.3654 14.1273C12.3342 14.0862 12.3019 14.0458 12.2679 14.0071C11.96 13.6584 11.6501 13.3119 11.3406 12.9644C11.3435 12.9609 11.3463 12.9582 11.3491 12.9551C11.2242 12.8304 11.0991 12.7057 10.9742 12.5807L11.7001 10.3951C11.7502 10.3819 11.8006 10.3708 11.8515 10.3653C12.2461 10.3252 12.6413 10.2797 13.0369 10.2568C13.2792 10.2432 13.5227 10.2355 13.7691 10.2529L15.5652 12.2772C15.5034 12.4726 15.443 12.6684 15.371 12.8596ZM15.9736 11.0264C16.4691 11.5221 16.8527 12.0879 17.124 12.6923C16.7884 12.4613 16.4296 12.2713 16.0524 12.1164C15.9937 12.0922 15.9335 12.0708 15.8723 12.0497L14.1044 10.0572C14.1167 9.97115 14.1231 9.88493 14.1258 9.79804C14.7983 10.0718 15.4287 10.4817 15.9736 11.0264ZM10.2007 9.69342C10.2077 9.69856 10.211 9.70287 10.2149 9.70403C10.619 9.84364 10.9866 10.0492 11.3332 10.2932L10.655 12.3354C10.6515 12.3364 10.6482 12.3374 10.6449 12.3389C10.5061 12.3963 10.3647 12.4477 10.228 12.5099C9.66511 12.7657 9.11628 13.0491 8.59927 13.3888L7.261 12.5971C7.26299 12.5553 7.27012 12.5129 7.28438 12.475C7.37425 12.2356 7.46263 11.9949 7.56427 11.7602C7.64254 11.5795 7.73174 11.4049 7.82908 11.2343C7.89275 11.164 7.95874 11.0943 8.02672 11.0264C8.66228 10.391 9.41341 9.93981 10.2131 9.67302C10.209 9.67949 10.2047 9.68629 10.2007 9.69342Z" fill="#091E42"/>
</svg>
