<svg width="24" height="18" viewBox="0 0 24 18" fill="none" xmlns="http://www.w3.org/2000/svg">
<path d="M21 0.75H3C2.40326 0.75 1.83097 0.987053 1.40901 1.40901C0.987053 1.83097 0.75 2.40326 0.75 3V15C0.75 15.5967 0.987053 16.169 1.40901 16.591C1.83097 17.0129 2.40326 17.25 3 17.25H21C21.5967 17.25 22.169 17.0129 22.591 16.591C23.0129 16.169 23.25 15.5967 23.25 15V3C23.25 2.40326 23.0129 1.83097 22.591 1.40901C22.169 0.987053 21.5967 0.75 21 0.75ZM2.25 6.75H3.75V11.25H2.25V6.75ZM11.25 15.75H3C2.80109 15.75 2.61032 15.671 2.46967 15.5303C2.32902 15.3897 2.25 15.1989 2.25 15V12.75H4.5C4.69891 12.75 4.88968 12.671 5.03033 12.5303C5.17098 12.3897 5.25 12.1989 5.25 12V6C5.25 5.80109 5.17098 5.61032 5.03033 5.46967C4.88968 5.32902 4.69891 5.25 4.5 5.25H2.25V3C2.25 2.80109 2.32902 2.61032 2.46967 2.46967C2.61032 2.32902 2.80109 2.25 3 2.25H11.25V6.105C10.6145 6.27771 10.0534 6.65475 9.65345 7.17795C9.25346 7.70114 9.03675 8.34142 9.03675 9C9.03675 9.65858 9.25346 10.2989 9.65345 10.8221C10.0534 11.3452 10.6145 11.7223 11.25 11.895V15.75ZM10.5 9C10.5 8.70333 10.588 8.41332 10.7528 8.16665C10.9176 7.91997 11.1519 7.72771 11.426 7.61418C11.7001 7.50065 12.0017 7.47094 12.2926 7.52882C12.5836 7.5867 12.8509 7.72956 13.0607 7.93934C13.2704 8.14912 13.4133 8.41639 13.4712 8.70736C13.5291 8.99834 13.4994 9.29994 13.3858 9.57403C13.2723 9.84811 13.08 10.0824 12.8334 10.2472C12.5867 10.412 12.2967 10.5 12 10.5C11.6022 10.5 11.2206 10.342 10.9393 10.0607C10.658 9.77936 10.5 9.39782 10.5 9ZM21.75 11.25H20.25V6.75H21.75V11.25ZM21.75 5.25H19.5C19.3011 5.25 19.1103 5.32902 18.9697 5.46967C18.829 5.61032 18.75 5.80109 18.75 6V12C18.75 12.1989 18.829 12.3897 18.9697 12.5303C19.1103 12.671 19.3011 12.75 19.5 12.75H21.75V15C21.75 15.1989 21.671 15.3897 21.5303 15.5303C21.3897 15.671 21.1989 15.75 21 15.75H12.75V11.895C13.3855 11.7223 13.9466 11.3452 14.3466 10.8221C14.7465 10.2989 14.9633 9.65858 14.9633 9C14.9633 8.34142 14.7465 7.70114 14.3466 7.17795C13.9466 6.65475 13.3855 6.27771 12.75 6.105V2.25H21C21.1989 2.25 21.3897 2.32902 21.5303 2.46967C21.671 2.61032 21.75 2.80109 21.75 3V5.25Z" fill="#636F82"/>
</svg>
