<svg width="47" height="20" viewBox="0 0 47 20" fill="none" xmlns="http://www.w3.org/2000/svg">
<path d="M0 10C0 4.47715 4.47715 0 10 0H37C42.5228 0 47 4.47715 47 10V10C47 15.5228 42.5228 20 37 20H10C4.47715 20 0 15.5228 0 10V10Z" fill="#EBECF0"/>
<circle cx="9" cy="10" r="3" fill="#FF5630"/>
<path d="M16.6953 14H21.8164V12.6055H18.3867V6H16.6953V14ZM24.6279 6H22.9365V14H24.6279V6ZM27.4648 6H25.5859L28.3477 14H30.5273L33.2852 6H31.4102L29.4727 12.0781H29.3984L27.4648 6ZM34.248 14H39.6543V12.6055H35.9395V10.6953H39.3613V9.30078H35.9395V7.39453H39.6387V6H34.248V14Z" fill="#091E42"/>
</svg>
