<svg width="24" height="24" viewBox="0 0 24 24" fill="none" xmlns="http://www.w3.org/2000/svg">
<path d="M20.25 3.825V1.5C20.25 1.30109 20.171 1.11032 20.0303 0.96967C19.8897 0.829018 19.6989 0.75 19.5 0.75C19.3011 0.75 19.1103 0.829018 18.9697 0.96967C18.829 1.11032 18.75 1.30109 18.75 1.5V3.75H12.75V1.5C12.75 1.30109 12.671 1.11032 12.5303 0.96967C12.3897 0.829018 12.1989 0.75 12 0.75C11.8011 0.75 11.6103 0.829018 11.4697 0.96967C11.329 1.11032 11.25 1.30109 11.25 1.5V3.75H5.25V1.5C5.25 1.30109 5.17098 1.11032 5.03033 0.96967C4.88968 0.829018 4.69891 0.75 4.5 0.75C4.30109 0.75 4.11032 0.829018 3.96967 0.96967C3.82902 1.11032 3.75 1.30109 3.75 1.5V3.825C2.90298 3.9979 2.1417 4.45814 1.59502 5.12782C1.04834 5.79751 0.749824 6.63551 0.75 7.5V19.5C0.75 20.4946 1.14509 21.4484 1.84835 22.1516C2.19657 22.4999 2.60997 22.7761 3.06494 22.9645C3.51991 23.153 4.00754 23.25 4.5 23.25H19.5C20.4946 23.25 21.4484 22.8549 22.1516 22.1516C22.8549 21.4484 23.25 20.4946 23.25 19.5V7.5C23.2502 6.63551 22.9517 5.79751 22.405 5.12782C21.8583 4.45814 21.097 3.9979 20.25 3.825ZM4.5 5.25H19.5C20.0967 5.25 20.669 5.48705 21.091 5.90901C21.5129 6.33097 21.75 6.90326 21.75 7.5V8.25H2.25V7.5C2.25 6.90326 2.48705 6.33097 2.90901 5.90901C3.33097 5.48705 3.90326 5.25 4.5 5.25ZM19.5 21.75H4.5C3.90326 21.75 3.33097 21.5129 2.90901 21.091C2.48705 20.669 2.25 20.0967 2.25 19.5V9.75H21.75V19.5C21.75 20.0967 21.5129 20.669 21.091 21.091C20.669 21.5129 20.0967 21.75 19.5 21.75Z" fill="#636F82"/>
</svg>
